HIERARCHY
ROOT Hips
{
	OFFSET -3.958830 18.904000 13.208200
	CHANNELS 6 Xposition Yposition Zposition Zrotation Yrotation Xrotation 
	JOINT LHipJoint
	{
		OFFSET 0.000000 0.000000 0.000000
		CHANNELS 3 Zrotation Yrotation Xrotation
		JOINT LeftUpLeg
		{
			OFFSET 1.800000 -1.400000 0.085000
			CHANNELS 3 Zrotation Yrotation Xrotation
			JOINT LeftLeg
			{
				OFFSET 2.215000 -6.000000 0.000000
				CHANNELS 3 Zrotation Yrotation Xrotation
				JOINT LeftFoot
				{
					OFFSET 2.500000 -6.900000 0.000000
					CHANNELS 3 Zrotation Yrotation Xrotation
					JOINT LeftToeBase
					{
						OFFSET 0.200000 -0.500000 1.950000
						CHANNELS 3 Zrotation Yrotation Xrotation
						End Site
						{
							OFFSET 0.000000 0.000000 0.000000
						}
					}
				}
			}
		}
	}
	JOINT RHipJoint
	{
		OFFSET 0.000000 0.000000 0.000000
		CHANNELS 3 Zrotation Yrotation Xrotation
		JOINT RightUpLeg
		{
			OFFSET -1.800000 -1.400000 0.085000
			CHANNELS 3 Zrotation Yrotation Xrotation
			JOINT RightLeg
			{
				OFFSET -2.215000 -6.000000 0.000000
				CHANNELS 3 Zrotation Yrotation Xrotation
				JOINT RightFoot
				{
					OFFSET -2.500000 -6.900000 0.000000
					CHANNELS 3 Zrotation Yrotation Xrotation
					JOINT RightToeBase
					{
						OFFSET -0.200000 -0.500000 1.950000
						CHANNELS 3 Zrotation Yrotation Xrotation
						End Site
						{
							OFFSET 0.000000 0.000000 0.000000
						}
					}
				}
			}
		}
	}
	JOINT LowerBack
	{
		OFFSET 0.000000 0.000000 0.000000
		CHANNELS 3 Zrotation Yrotation Xrotation
		JOINT Spine
		{
			OFFSET -0.087000 1.940000 -0.288900
			CHANNELS 3 Zrotation Yrotation Xrotation
			JOINT Spine1
			{
				OFFSET 0.000000 1.950000 0.060000
				CHANNELS 3 Zrotation Yrotation Xrotation
				JOINT Neck
				{
					OFFSET 0.000000 0.000000 0.000000
					CHANNELS 3 Zrotation Yrotation Xrotation
					JOINT Neck1
					{
						OFFSET 0.000000 1.600000 0.340000
						CHANNELS 3 Zrotation Yrotation Xrotation
						JOINT Head
						{
							OFFSET 0.000000 1.667000 -0.240000
							CHANNELS 3 Zrotation Yrotation Xrotation
							End Site
							{
								OFFSET 0.000000 0.000000 0.000000
							}
						}
					}
				}
				JOINT LeftShoulder
				{
					OFFSET 0.000000 0.000000 0.000000
					CHANNELS 3 Zrotation Yrotation Xrotation
					JOINT LeftArm
					{
						OFFSET 2.700000 1.550000 -0.730000
						CHANNELS 3 Zrotation Yrotation Xrotation
						JOINT LeftForeArm
						{
							OFFSET 5.450000 0.000000 0.000000
							CHANNELS 3 Zrotation Yrotation Xrotation
							JOINT LeftHand
							{
								OFFSET 3.450000 0.000000 0.000000
								CHANNELS 3 Zrotation Yrotation Xrotation
								JOINT LeftHandIndex1
								{
									OFFSET 0.750000 0.000000 0.000000
									CHANNELS 3 Zrotation Yrotation Xrotation
									End Site
									{
										OFFSET 0.000000 0.000000 0.000000
									}
								}
							}
						}
					}
				}
				JOINT RightShoulder
				{
					OFFSET 0.000000 0.000000 0.000000
					CHANNELS 3 Zrotation Yrotation Xrotation
					JOINT RightArm
					{
						OFFSET -2.700000 1.550000 -0.730000
						CHANNELS 3 Zrotation Yrotation Xrotation
						JOINT RightForeArm
						{
							OFFSET -5.450000 0.000000 0.000000
							CHANNELS 3 Zrotation Yrotation Xrotation
							JOINT RightHand
							{
								OFFSET -3.450000 0.000000 0.000000
								CHANNELS 3 Zrotation Yrotation Xrotation
								JOINT RightHandIndex1
								{
									OFFSET -0.750000 0.000000 0.000000
									CHANNELS 3 Zrotation Yrotation Xrotation
									End Site
									{
										OFFSET 0.000000 0.000000 0.000000
									}
								}
							}
						}
					}
				}
			}
		}
	}
}
MOTION
Frames: 4
Frame Time: 0.016667
0.785950 16.862260 -7.620150 5.899879 13.104839 8.869074 -14.476664 12.113168 3.032494 -0.032962 -3.062518 -21.582969 5.024419 1.569363 2.501294 -0.756275 1.795401 3.974169 0.387480 0.253310 0.253560 18.896680 -11.467848 3.428160 -18.920480 5.545182 -29.007943 12.856195 -10.411911 32.987984 -0.409700 -5.792487 2.187183 0.192830 0.068230 0.115820 -5.769439 1.757940 -7.786137 27.634744 -9.398032 20.072134 -18.507518 -7.494690 3.939598 8.083670 -4.663826 -1.426669 -3.324986 4.137329 43.011950 -7.851370 -0.786320 -13.644850 -36.021018 4.979667 -3.882423 -42.671098 5.870927 -6.022076 -17.706703 3.398947 -2.529027 -3.562137 2.652495 0.331430 0.015080 0.007450 0.091390 19.372726 -2.366344 2.024662 72.519259 29.798778 16.277050 -165.797567 67.958455 -168.009490 1.855894 -1.910562 -0.088740 0.191690 -0.016790 -0.104320 
0.797970 16.874440 -7.628110 5.473381 13.148285 9.504599 -14.471706 12.053562 3.039430 0.294750 -3.102384 -22.152108 5.026851 1.547215 2.038033 -0.777804 1.794774 3.974929 0.391650 0.255640 0.259970 18.915338 -11.451903 3.425421 -18.250163 5.619584 -29.439901 12.556466 -10.095912 32.450086 -0.378869 -5.640618 2.236881 0.208490 0.077770 0.109780 -5.796029 1.814155 -7.763334 27.936155 -9.375101 19.390225 -18.369744 -7.451366 4.621485 7.939725 -4.466835 -1.584343 -3.187590 4.279499 42.363966 -7.499590 -0.585190 -13.236580 -35.212462 4.722867 -3.853158 -43.326131 4.960940 -5.696858 -18.146108 4.564138 -2.690158 -3.605852 2.650149 0.325920 0.026300 -0.005810 0.090820 18.986918 -2.317783 2.109015 73.278288 30.388861 16.514136 -164.644745 68.958087 -166.976110 1.863911 -1.921241 -0.102870 0.197220 -0.017160 -0.111900 
0.820040 16.918740 -7.646440 4.952228 12.615550 10.524356 -14.481371 12.039081 3.078834 1.317177 -3.216727 -23.744820 4.069796 1.672845 2.574605 -0.789561 1.792138 3.962961 0.400750 0.268100 0.260240 18.907824 -11.413684 3.417565 -17.158763 5.759310 -30.120363 11.547385 -9.227084 31.061448 -0.307828 -5.238260 2.377474 0.221170 0.091760 0.116680 -5.752424 1.738519 -7.745665 27.500441 -9.262856 19.277423 -17.210009 -7.261646 5.262878 7.311551 -4.582567 -1.948238 -3.886730 4.619979 41.464909 -6.794090 -0.569900 -12.994900 -33.601124 4.583110 -3.808077 -44.569809 3.876383 -5.463638 -19.811935 5.653335 -2.959211 -3.659012 2.690833 0.310620 0.040200 -0.015600 0.093270 18.802151 -1.858868 2.067246 73.496825 31.890384 16.887796 -162.139034 71.247595 -164.513802 1.891214 -1.930225 -0.099300 0.195150 -0.017590 -0.107640 
0.856420 16.975700 -7.685290 4.096676 12.090344 11.763214 -14.494134 11.990256 3.199425 2.691117 -3.415101 -26.406384 2.548719 1.910450 3.643468 -0.796682 1.796163 3.932773 0.397890 0.258880 0.252300 18.889532 -11.364302 3.427737 -15.622864 5.980689 -30.848050 10.400683 -8.186262 28.951261 -0.227628 -4.685800 2.574736 0.212900 0.090590 0.125000 -5.693604 1.702121 -7.775483 27.544423 -9.126255 19.553650 -15.921796 -6.766430 5.477569 6.909998 -4.740536 -2.640782 -4.365685 5.235169 40.761311 -6.069450 -0.087620 -13.231030 -31.009633 4.941898 -3.679248 -46.789312 2.953154 -5.530136 -20.456201 4.865618 -2.847884 -3.702512 2.740202 0.324710 0.034680 -0.013610 0.090210 17.088843 -1.395405 2.433835 74.578727 33.732269 18.082988 -151.977354 73.178195 -153.326968 1.997442 -1.927272 -0.098860 0.181810 -0.010140 -0.111600 
